<?xml version="1.0" standalone="no"?>
<!DOCTYPE svg PUBLIC "-//W3C//DTD SVG 1.1//EN" "http://www.w3.org/Graphics/SVG/1.1/DTD/svg11.dtd">
<!-- Created with WaveDrom -->
<svg id="svgcontent_0" xmlns="http://www.w3.org/2000/svg" xmlns:xlink="http://www.w3.org/1999/xlink" overflow="hidden" viewBox="0 0 193 193" width="193" height="193"><style>.pinname {font-size:12px; font-style:normal; font-variant:normal; font-weight:500; font-stretch:normal; text-align:center; text-anchor:end; font-family:Helvetica} .wirename {font-size:12px; font-style:normal; font-variant:normal; font-weight:500; font-stretch:normal; text-align:center; text-anchor:start; font-family:Helvetica} .wirename:hover {fill:blue} .gate {color:#000; fill:#ffc; fill-opacity: 1;stroke:#000; stroke-width:1; stroke-opacity:1} .gate:hover {fill:red !important; } .wire {fill:none; stroke:#000; stroke-width:1; stroke-opacity:1} .grid {fill:#fff; fill-opacity:1; stroke:none}</style><g transform="translate(0.5, 0.5)"><g><rect height="1" width="1" x="-0.5" y="-0.5" class="grid"/><rect height="1" width="1" x="-0.5" y="7.5" class="grid"/><rect height="1" width="1" x="-0.5" y="15.5" class="grid"/><rect height="1" width="1" x="-0.5" y="23.5" class="grid"/><rect height="1" width="1" x="-0.5" y="31.5" class="grid"/><rect height="1" width="1" x="-0.5" y="39.5" class="grid"/><rect height="1" width="1" x="-0.5" y="47.5" class="grid"/><rect height="1" width="1" x="-0.5" y="55.5" class="grid"/><rect height="1" width="1" x="-0.5" y="63.5" class="grid"/><rect height="1" width="1" x="-0.5" y="71.5" class="grid"/><rect height="1" width="1" x="-0.5" y="79.5" class="grid"/><rect height="1" width="1" x="-0.5" y="87.5" class="grid"/><rect height="1" width="1" x="-0.5" y="95.5" class="grid"/><rect height="1" width="1" x="-0.5" y="103.5" class="grid"/><rect height="1" width="1" x="-0.5" y="111.5" class="grid"/><rect height="1" width="1" x="-0.5" y="119.5" class="grid"/><rect height="1" width="1" x="-0.5" y="127.5" class="grid"/><rect height="1" width="1" x="-0.5" y="135.5" class="grid"/><rect height="1" width="1" x="-0.5" y="143.5" class="grid"/><rect height="1" width="1" x="-0.5" y="151.5" class="grid"/><rect height="1" width="1" x="-0.5" y="159.5" class="grid"/><rect height="1" width="1" x="-0.5" y="167.5" class="grid"/><rect height="1" width="1" x="-0.5" y="175.5" class="grid"/><rect height="1" width="1" x="-0.5" y="183.5" class="grid"/><rect height="1" width="1" x="-0.5" y="191.5" class="grid"/><rect height="1" width="1" x="-0.5" y="199.5" class="grid"/><rect height="1" width="1" x="7.5" y="-0.5" class="grid"/><rect height="1" width="1" x="7.5" y="7.5" class="grid"/><rect height="1" width="1" x="7.5" y="15.5" class="grid"/><rect height="1" width="1" x="7.5" y="23.5" class="grid"/><rect height="1" width="1" x="7.5" y="31.5" class="grid"/><rect height="1" width="1" x="7.5" y="39.5" class="grid"/><rect height="1" width="1" x="7.5" y="47.5" class="grid"/><rect height="1" width="1" x="7.5" y="55.5" class="grid"/><rect height="1" width="1" x="7.5" y="63.5" class="grid"/><rect height="1" width="1" x="7.5" y="71.5" class="grid"/><rect height="1" width="1" x="7.5" y="79.5" class="grid"/><rect height="1" width="1" x="7.5" y="87.5" class="grid"/><rect height="1" width="1" x="7.5" y="95.5" class="grid"/><rect height="1" width="1" x="7.5" y="103.5" class="grid"/><rect height="1" width="1" x="7.5" y="111.5" class="grid"/><rect height="1" width="1" x="7.5" y="119.5" class="grid"/><rect height="1" width="1" x="7.5" y="127.5" class="grid"/><rect height="1" width="1" x="7.5" y="135.5" class="grid"/><rect height="1" width="1" x="7.5" y="143.5" class="grid"/><rect height="1" width="1" x="7.5" y="151.5" class="grid"/><rect height="1" width="1" x="7.5" y="159.5" class="grid"/><rect height="1" width="1" x="7.5" y="167.5" class="grid"/><rect height="1" width="1" x="7.5" y="175.5" class="grid"/><rect height="1" width="1" x="7.5" y="183.5" class="grid"/><rect height="1" width="1" x="7.5" y="191.5" class="grid"/><rect height="1" width="1" x="7.5" y="199.5" class="grid"/><rect height="1" width="1" x="15.5" y="-0.5" class="grid"/><rect height="1" width="1" x="15.5" y="7.5" class="grid"/><rect height="1" width="1" x="15.5" y="15.5" class="grid"/><rect height="1" width="1" x="15.5" y="23.5" class="grid"/><rect height="1" width="1" x="15.5" y="31.5" class="grid"/><rect height="1" width="1" x="15.5" y="39.5" class="grid"/><rect height="1" width="1" x="15.5" y="47.5" class="grid"/><rect height="1" width="1" x="15.5" y="55.5" class="grid"/><rect height="1" width="1" x="15.5" y="63.5" class="grid"/><rect height="1" width="1" x="15.5" y="71.5" class="grid"/><rect height="1" width="1" x="15.5" y="79.5" class="grid"/><rect height="1" width="1" x="15.5" y="87.5" class="grid"/><rect height="1" width="1" x="15.5" y="95.5" class="grid"/><rect height="1" width="1" x="15.5" y="103.5" class="grid"/><rect height="1" width="1" x="15.5" y="111.5" class="grid"/><rect height="1" width="1" x="15.5" y="119.5" class="grid"/><rect height="1" width="1" x="15.5" y="127.5" class="grid"/><rect height="1" width="1" x="15.5" y="135.5" class="grid"/><rect height="1" width="1" x="15.5" y="143.5" class="grid"/><rect height="1" width="1" x="15.5" y="151.5" class="grid"/><rect height="1" width="1" x="15.5" y="159.5" class="grid"/><rect height="1" width="1" x="15.5" y="167.5" class="grid"/><rect height="1" width="1" x="15.5" y="175.5" class="grid"/><rect height="1" width="1" x="15.5" y="183.5" class="grid"/><rect height="1" width="1" x="15.5" y="191.5" class="grid"/><rect height="1" width="1" x="15.5" y="199.5" class="grid"/><rect height="1" width="1" x="23.5" y="-0.5" class="grid"/><rect height="1" width="1" x="23.5" y="7.5" class="grid"/><rect height="1" width="1" x="23.5" y="15.5" class="grid"/><rect height="1" width="1" x="23.5" y="23.5" class="grid"/><rect height="1" width="1" x="23.5" y="31.5" class="grid"/><rect height="1" width="1" x="23.5" y="39.5" class="grid"/><rect height="1" width="1" x="23.5" y="47.5" class="grid"/><rect height="1" width="1" x="23.5" y="55.5" class="grid"/><rect height="1" width="1" x="23.5" y="63.5" class="grid"/><rect height="1" width="1" x="23.5" y="71.5" class="grid"/><rect height="1" width="1" x="23.5" y="79.5" class="grid"/><rect height="1" width="1" x="23.5" y="87.5" class="grid"/><rect height="1" width="1" x="23.5" y="95.5" class="grid"/><rect height="1" width="1" x="23.5" y="103.5" class="grid"/><rect height="1" width="1" x="23.5" y="111.5" class="grid"/><rect height="1" width="1" x="23.5" y="119.5" class="grid"/><rect height="1" width="1" x="23.5" y="127.5" class="grid"/><rect height="1" width="1" x="23.5" y="135.5" class="grid"/><rect height="1" width="1" x="23.5" y="143.5" class="grid"/><rect height="1" width="1" x="23.5" y="151.5" class="grid"/><rect height="1" width="1" x="23.5" y="159.5" class="grid"/><rect height="1" width="1" x="23.5" y="167.5" class="grid"/><rect height="1" width="1" x="23.5" y="175.5" class="grid"/><rect height="1" width="1" x="23.5" y="183.5" class="grid"/><rect height="1" width="1" x="23.5" y="191.5" class="grid"/><rect height="1" width="1" x="23.5" y="199.5" class="grid"/><rect height="1" width="1" x="31.5" y="-0.5" class="grid"/><rect height="1" width="1" x="31.5" y="7.5" class="grid"/><rect height="1" width="1" x="31.5" y="15.5" class="grid"/><rect height="1" width="1" x="31.5" y="23.5" class="grid"/><rect height="1" width="1" x="31.5" y="31.5" class="grid"/><rect height="1" width="1" x="31.5" y="39.5" class="grid"/><rect height="1" width="1" x="31.5" y="47.5" class="grid"/><rect height="1" width="1" x="31.5" y="55.5" class="grid"/><rect height="1" width="1" x="31.5" y="63.5" class="grid"/><rect height="1" width="1" x="31.5" y="71.5" class="grid"/><rect height="1" width="1" x="31.5" y="79.5" class="grid"/><rect height="1" width="1" x="31.5" y="87.5" class="grid"/><rect height="1" width="1" x="31.5" y="95.5" class="grid"/><rect height="1" width="1" x="31.5" y="103.5" class="grid"/><rect height="1" width="1" x="31.5" y="111.5" class="grid"/><rect height="1" width="1" x="31.5" y="119.5" class="grid"/><rect height="1" width="1" x="31.5" y="127.5" class="grid"/><rect height="1" width="1" x="31.5" y="135.5" class="grid"/><rect height="1" width="1" x="31.5" y="143.5" class="grid"/><rect height="1" width="1" x="31.5" y="151.5" class="grid"/><rect height="1" width="1" x="31.5" y="159.5" class="grid"/><rect height="1" width="1" x="31.5" y="167.5" class="grid"/><rect height="1" width="1" x="31.5" y="175.5" class="grid"/><rect height="1" width="1" x="31.5" y="183.5" class="grid"/><rect height="1" width="1" x="31.5" y="191.5" class="grid"/><rect height="1" width="1" x="31.5" y="199.5" class="grid"/><rect height="1" width="1" x="39.5" y="-0.5" class="grid"/><rect height="1" width="1" x="39.5" y="7.5" class="grid"/><rect height="1" width="1" x="39.5" y="15.5" class="grid"/><rect height="1" width="1" x="39.5" y="23.5" class="grid"/><rect height="1" width="1" x="39.5" y="31.5" class="grid"/><rect height="1" width="1" x="39.5" y="39.5" class="grid"/><rect height="1" width="1" x="39.5" y="47.5" class="grid"/><rect height="1" width="1" x="39.5" y="55.5" class="grid"/><rect height="1" width="1" x="39.5" y="63.5" class="grid"/><rect height="1" width="1" x="39.5" y="71.5" class="grid"/><rect height="1" width="1" x="39.5" y="79.5" class="grid"/><rect height="1" width="1" x="39.5" y="87.5" class="grid"/><rect height="1" width="1" x="39.5" y="95.5" class="grid"/><rect height="1" width="1" x="39.5" y="103.5" class="grid"/><rect height="1" width="1" x="39.5" y="111.5" class="grid"/><rect height="1" width="1" x="39.5" y="119.5" class="grid"/><rect height="1" width="1" x="39.5" y="127.5" class="grid"/><rect height="1" width="1" x="39.5" y="135.5" class="grid"/><rect height="1" width="1" x="39.5" y="143.5" class="grid"/><rect height="1" width="1" x="39.5" y="151.5" class="grid"/><rect height="1" width="1" x="39.5" y="159.5" class="grid"/><rect height="1" width="1" x="39.5" y="167.5" class="grid"/><rect height="1" width="1" x="39.5" y="175.5" class="grid"/><rect height="1" width="1" x="39.5" y="183.5" class="grid"/><rect height="1" width="1" x="39.5" y="191.5" class="grid"/><rect height="1" width="1" x="39.5" y="199.5" class="grid"/><rect height="1" width="1" x="47.5" y="-0.5" class="grid"/><rect height="1" width="1" x="47.5" y="7.5" class="grid"/><rect height="1" width="1" x="47.5" y="15.5" class="grid"/><rect height="1" width="1" x="47.5" y="23.5" class="grid"/><rect height="1" width="1" x="47.5" y="31.5" class="grid"/><rect height="1" width="1" x="47.5" y="39.5" class="grid"/><rect height="1" width="1" x="47.5" y="47.5" class="grid"/><rect height="1" width="1" x="47.5" y="55.5" class="grid"/><rect height="1" width="1" x="47.5" y="63.5" class="grid"/><rect height="1" width="1" x="47.5" y="71.5" class="grid"/><rect height="1" width="1" x="47.5" y="79.5" class="grid"/><rect height="1" width="1" x="47.5" y="87.5" class="grid"/><rect height="1" width="1" x="47.5" y="95.5" class="grid"/><rect height="1" width="1" x="47.5" y="103.5" class="grid"/><rect height="1" width="1" x="47.5" y="111.5" class="grid"/><rect height="1" width="1" x="47.5" y="119.5" class="grid"/><rect height="1" width="1" x="47.5" y="127.5" class="grid"/><rect height="1" width="1" x="47.5" y="135.5" class="grid"/><rect height="1" width="1" x="47.5" y="143.5" class="grid"/><rect height="1" width="1" x="47.5" y="151.5" class="grid"/><rect height="1" width="1" x="47.5" y="159.5" class="grid"/><rect height="1" width="1" x="47.5" y="167.5" class="grid"/><rect height="1" width="1" x="47.5" y="175.5" class="grid"/><rect height="1" width="1" x="47.5" y="183.5" class="grid"/><rect height="1" width="1" x="47.5" y="191.5" class="grid"/><rect height="1" width="1" x="47.5" y="199.5" class="grid"/><rect height="1" width="1" x="55.5" y="-0.5" class="grid"/><rect height="1" width="1" x="55.5" y="7.5" class="grid"/><rect height="1" width="1" x="55.5" y="15.5" class="grid"/><rect height="1" width="1" x="55.5" y="23.5" class="grid"/><rect height="1" width="1" x="55.5" y="31.5" class="grid"/><rect height="1" width="1" x="55.5" y="39.5" class="grid"/><rect height="1" width="1" x="55.5" y="47.5" class="grid"/><rect height="1" width="1" x="55.5" y="55.5" class="grid"/><rect height="1" width="1" x="55.5" y="63.5" class="grid"/><rect height="1" width="1" x="55.5" y="71.5" class="grid"/><rect height="1" width="1" x="55.5" y="79.5" class="grid"/><rect height="1" width="1" x="55.5" y="87.5" class="grid"/><rect height="1" width="1" x="55.5" y="95.5" class="grid"/><rect height="1" width="1" x="55.5" y="103.5" class="grid"/><rect height="1" width="1" x="55.5" y="111.5" class="grid"/><rect height="1" width="1" x="55.5" y="119.5" class="grid"/><rect height="1" width="1" x="55.5" y="127.5" class="grid"/><rect height="1" width="1" x="55.5" y="135.5" class="grid"/><rect height="1" width="1" x="55.5" y="143.5" class="grid"/><rect height="1" width="1" x="55.5" y="151.5" class="grid"/><rect height="1" width="1" x="55.5" y="159.5" class="grid"/><rect height="1" width="1" x="55.5" y="167.5" class="grid"/><rect height="1" width="1" x="55.5" y="175.5" class="grid"/><rect height="1" width="1" x="55.5" y="183.5" class="grid"/><rect height="1" width="1" x="55.5" y="191.5" class="grid"/><rect height="1" width="1" x="55.5" y="199.5" class="grid"/><rect height="1" width="1" x="63.5" y="-0.5" class="grid"/><rect height="1" width="1" x="63.5" y="7.5" class="grid"/><rect height="1" width="1" x="63.5" y="15.5" class="grid"/><rect height="1" width="1" x="63.5" y="23.5" class="grid"/><rect height="1" width="1" x="63.5" y="31.5" class="grid"/><rect height="1" width="1" x="63.5" y="39.5" class="grid"/><rect height="1" width="1" x="63.5" y="47.5" class="grid"/><rect height="1" width="1" x="63.5" y="55.5" class="grid"/><rect height="1" width="1" x="63.5" y="63.5" class="grid"/><rect height="1" width="1" x="63.5" y="71.5" class="grid"/><rect height="1" width="1" x="63.5" y="79.5" class="grid"/><rect height="1" width="1" x="63.5" y="87.5" class="grid"/><rect height="1" width="1" x="63.5" y="95.5" class="grid"/><rect height="1" width="1" x="63.5" y="103.5" class="grid"/><rect height="1" width="1" x="63.5" y="111.5" class="grid"/><rect height="1" width="1" x="63.5" y="119.5" class="grid"/><rect height="1" width="1" x="63.5" y="127.5" class="grid"/><rect height="1" width="1" x="63.5" y="135.5" class="grid"/><rect height="1" width="1" x="63.5" y="143.5" class="grid"/><rect height="1" width="1" x="63.5" y="151.5" class="grid"/><rect height="1" width="1" x="63.5" y="159.5" class="grid"/><rect height="1" width="1" x="63.5" y="167.5" class="grid"/><rect height="1" width="1" x="63.5" y="175.5" class="grid"/><rect height="1" width="1" x="63.5" y="183.5" class="grid"/><rect height="1" width="1" x="63.5" y="191.5" class="grid"/><rect height="1" width="1" x="63.5" y="199.5" class="grid"/><rect height="1" width="1" x="71.5" y="-0.5" class="grid"/><rect height="1" width="1" x="71.5" y="7.5" class="grid"/><rect height="1" width="1" x="71.5" y="15.5" class="grid"/><rect height="1" width="1" x="71.5" y="23.5" class="grid"/><rect height="1" width="1" x="71.5" y="31.5" class="grid"/><rect height="1" width="1" x="71.5" y="39.5" class="grid"/><rect height="1" width="1" x="71.5" y="47.5" class="grid"/><rect height="1" width="1" x="71.5" y="55.5" class="grid"/><rect height="1" width="1" x="71.5" y="63.5" class="grid"/><rect height="1" width="1" x="71.5" y="71.5" class="grid"/><rect height="1" width="1" x="71.5" y="79.5" class="grid"/><rect height="1" width="1" x="71.5" y="87.5" class="grid"/><rect height="1" width="1" x="71.5" y="95.5" class="grid"/><rect height="1" width="1" x="71.5" y="103.5" class="grid"/><rect height="1" width="1" x="71.5" y="111.5" class="grid"/><rect height="1" width="1" x="71.5" y="119.5" class="grid"/><rect height="1" width="1" x="71.5" y="127.5" class="grid"/><rect height="1" width="1" x="71.5" y="135.5" class="grid"/><rect height="1" width="1" x="71.5" y="143.5" class="grid"/><rect height="1" width="1" x="71.5" y="151.5" class="grid"/><rect height="1" width="1" x="71.5" y="159.5" class="grid"/><rect height="1" width="1" x="71.5" y="167.5" class="grid"/><rect height="1" width="1" x="71.5" y="175.5" class="grid"/><rect height="1" width="1" x="71.5" y="183.5" class="grid"/><rect height="1" width="1" x="71.5" y="191.5" class="grid"/><rect height="1" width="1" x="71.5" y="199.5" class="grid"/><rect height="1" width="1" x="79.5" y="-0.5" class="grid"/><rect height="1" width="1" x="79.5" y="7.5" class="grid"/><rect height="1" width="1" x="79.5" y="15.5" class="grid"/><rect height="1" width="1" x="79.5" y="23.5" class="grid"/><rect height="1" width="1" x="79.5" y="31.5" class="grid"/><rect height="1" width="1" x="79.5" y="39.5" class="grid"/><rect height="1" width="1" x="79.5" y="47.5" class="grid"/><rect height="1" width="1" x="79.5" y="55.5" class="grid"/><rect height="1" width="1" x="79.5" y="63.5" class="grid"/><rect height="1" width="1" x="79.5" y="71.5" class="grid"/><rect height="1" width="1" x="79.5" y="79.5" class="grid"/><rect height="1" width="1" x="79.5" y="87.5" class="grid"/><rect height="1" width="1" x="79.5" y="95.5" class="grid"/><rect height="1" width="1" x="79.5" y="103.5" class="grid"/><rect height="1" width="1" x="79.5" y="111.5" class="grid"/><rect height="1" width="1" x="79.5" y="119.5" class="grid"/><rect height="1" width="1" x="79.5" y="127.5" class="grid"/><rect height="1" width="1" x="79.5" y="135.5" class="grid"/><rect height="1" width="1" x="79.5" y="143.5" class="grid"/><rect height="1" width="1" x="79.5" y="151.5" class="grid"/><rect height="1" width="1" x="79.5" y="159.5" class="grid"/><rect height="1" width="1" x="79.5" y="167.5" class="grid"/><rect height="1" width="1" x="79.5" y="175.5" class="grid"/><rect height="1" width="1" x="79.5" y="183.5" class="grid"/><rect height="1" width="1" x="79.5" y="191.5" class="grid"/><rect height="1" width="1" x="79.5" y="199.5" class="grid"/><rect height="1" width="1" x="87.5" y="-0.5" class="grid"/><rect height="1" width="1" x="87.5" y="7.5" class="grid"/><rect height="1" width="1" x="87.5" y="15.5" class="grid"/><rect height="1" width="1" x="87.5" y="23.5" class="grid"/><rect height="1" width="1" x="87.5" y="31.5" class="grid"/><rect height="1" width="1" x="87.5" y="39.5" class="grid"/><rect height="1" width="1" x="87.5" y="47.5" class="grid"/><rect height="1" width="1" x="87.5" y="55.5" class="grid"/><rect height="1" width="1" x="87.5" y="63.5" class="grid"/><rect height="1" width="1" x="87.5" y="71.5" class="grid"/><rect height="1" width="1" x="87.5" y="79.5" class="grid"/><rect height="1" width="1" x="87.5" y="87.5" class="grid"/><rect height="1" width="1" x="87.5" y="95.5" class="grid"/><rect height="1" width="1" x="87.5" y="103.5" class="grid"/><rect height="1" width="1" x="87.5" y="111.5" class="grid"/><rect height="1" width="1" x="87.5" y="119.5" class="grid"/><rect height="1" width="1" x="87.5" y="127.5" class="grid"/><rect height="1" width="1" x="87.5" y="135.5" class="grid"/><rect height="1" width="1" x="87.5" y="143.5" class="grid"/><rect height="1" width="1" x="87.5" y="151.5" class="grid"/><rect height="1" width="1" x="87.5" y="159.5" class="grid"/><rect height="1" width="1" x="87.5" y="167.5" class="grid"/><rect height="1" width="1" x="87.5" y="175.5" class="grid"/><rect height="1" width="1" x="87.5" y="183.5" class="grid"/><rect height="1" width="1" x="87.5" y="191.5" class="grid"/><rect height="1" width="1" x="87.5" y="199.5" class="grid"/><rect height="1" width="1" x="95.5" y="-0.5" class="grid"/><rect height="1" width="1" x="95.5" y="7.5" class="grid"/><rect height="1" width="1" x="95.5" y="15.5" class="grid"/><rect height="1" width="1" x="95.5" y="23.5" class="grid"/><rect height="1" width="1" x="95.5" y="31.5" class="grid"/><rect height="1" width="1" x="95.5" y="39.5" class="grid"/><rect height="1" width="1" x="95.5" y="47.5" class="grid"/><rect height="1" width="1" x="95.5" y="55.5" class="grid"/><rect height="1" width="1" x="95.5" y="63.5" class="grid"/><rect height="1" width="1" x="95.5" y="71.5" class="grid"/><rect height="1" width="1" x="95.5" y="79.5" class="grid"/><rect height="1" width="1" x="95.5" y="87.5" class="grid"/><rect height="1" width="1" x="95.5" y="95.5" class="grid"/><rect height="1" width="1" x="95.5" y="103.5" class="grid"/><rect height="1" width="1" x="95.5" y="111.5" class="grid"/><rect height="1" width="1" x="95.5" y="119.5" class="grid"/><rect height="1" width="1" x="95.5" y="127.5" class="grid"/><rect height="1" width="1" x="95.5" y="135.5" class="grid"/><rect height="1" width="1" x="95.5" y="143.5" class="grid"/><rect height="1" width="1" x="95.5" y="151.5" class="grid"/><rect height="1" width="1" x="95.5" y="159.5" class="grid"/><rect height="1" width="1" x="95.5" y="167.5" class="grid"/><rect height="1" width="1" x="95.5" y="175.5" class="grid"/><rect height="1" width="1" x="95.5" y="183.5" class="grid"/><rect height="1" width="1" x="95.5" y="191.5" class="grid"/><rect height="1" width="1" x="95.5" y="199.5" class="grid"/><rect height="1" width="1" x="103.5" y="-0.5" class="grid"/><rect height="1" width="1" x="103.5" y="7.5" class="grid"/><rect height="1" width="1" x="103.5" y="15.5" class="grid"/><rect height="1" width="1" x="103.5" y="23.5" class="grid"/><rect height="1" width="1" x="103.5" y="31.5" class="grid"/><rect height="1" width="1" x="103.5" y="39.5" class="grid"/><rect height="1" width="1" x="103.5" y="47.5" class="grid"/><rect height="1" width="1" x="103.5" y="55.5" class="grid"/><rect height="1" width="1" x="103.5" y="63.5" class="grid"/><rect height="1" width="1" x="103.5" y="71.5" class="grid"/><rect height="1" width="1" x="103.5" y="79.5" class="grid"/><rect height="1" width="1" x="103.5" y="87.5" class="grid"/><rect height="1" width="1" x="103.5" y="95.5" class="grid"/><rect height="1" width="1" x="103.5" y="103.5" class="grid"/><rect height="1" width="1" x="103.5" y="111.5" class="grid"/><rect height="1" width="1" x="103.5" y="119.5" class="grid"/><rect height="1" width="1" x="103.5" y="127.5" class="grid"/><rect height="1" width="1" x="103.5" y="135.5" class="grid"/><rect height="1" width="1" x="103.5" y="143.5" class="grid"/><rect height="1" width="1" x="103.5" y="151.5" class="grid"/><rect height="1" width="1" x="103.5" y="159.5" class="grid"/><rect height="1" width="1" x="103.5" y="167.5" class="grid"/><rect height="1" width="1" x="103.5" y="175.5" class="grid"/><rect height="1" width="1" x="103.5" y="183.5" class="grid"/><rect height="1" width="1" x="103.5" y="191.5" class="grid"/><rect height="1" width="1" x="103.5" y="199.5" class="grid"/><rect height="1" width="1" x="111.5" y="-0.5" class="grid"/><rect height="1" width="1" x="111.5" y="7.5" class="grid"/><rect height="1" width="1" x="111.5" y="15.5" class="grid"/><rect height="1" width="1" x="111.5" y="23.5" class="grid"/><rect height="1" width="1" x="111.5" y="31.5" class="grid"/><rect height="1" width="1" x="111.5" y="39.5" class="grid"/><rect height="1" width="1" x="111.5" y="47.5" class="grid"/><rect height="1" width="1" x="111.5" y="55.5" class="grid"/><rect height="1" width="1" x="111.5" y="63.5" class="grid"/><rect height="1" width="1" x="111.5" y="71.5" class="grid"/><rect height="1" width="1" x="111.5" y="79.5" class="grid"/><rect height="1" width="1" x="111.5" y="87.5" class="grid"/><rect height="1" width="1" x="111.5" y="95.5" class="grid"/><rect height="1" width="1" x="111.5" y="103.5" class="grid"/><rect height="1" width="1" x="111.5" y="111.5" class="grid"/><rect height="1" width="1" x="111.5" y="119.5" class="grid"/><rect height="1" width="1" x="111.5" y="127.5" class="grid"/><rect height="1" width="1" x="111.5" y="135.5" class="grid"/><rect height="1" width="1" x="111.5" y="143.5" class="grid"/><rect height="1" width="1" x="111.5" y="151.5" class="grid"/><rect height="1" width="1" x="111.5" y="159.5" class="grid"/><rect height="1" width="1" x="111.5" y="167.5" class="grid"/><rect height="1" width="1" x="111.5" y="175.5" class="grid"/><rect height="1" width="1" x="111.5" y="183.5" class="grid"/><rect height="1" width="1" x="111.5" y="191.5" class="grid"/><rect height="1" width="1" x="111.5" y="199.5" class="grid"/><rect height="1" width="1" x="119.5" y="-0.5" class="grid"/><rect height="1" width="1" x="119.5" y="7.5" class="grid"/><rect height="1" width="1" x="119.5" y="15.5" class="grid"/><rect height="1" width="1" x="119.5" y="23.5" class="grid"/><rect height="1" width="1" x="119.5" y="31.5" class="grid"/><rect height="1" width="1" x="119.5" y="39.5" class="grid"/><rect height="1" width="1" x="119.5" y="47.5" class="grid"/><rect height="1" width="1" x="119.5" y="55.5" class="grid"/><rect height="1" width="1" x="119.5" y="63.5" class="grid"/><rect height="1" width="1" x="119.5" y="71.5" class="grid"/><rect height="1" width="1" x="119.5" y="79.5" class="grid"/><rect height="1" width="1" x="119.5" y="87.5" class="grid"/><rect height="1" width="1" x="119.5" y="95.5" class="grid"/><rect height="1" width="1" x="119.5" y="103.5" class="grid"/><rect height="1" width="1" x="119.5" y="111.5" class="grid"/><rect height="1" width="1" x="119.5" y="119.5" class="grid"/><rect height="1" width="1" x="119.5" y="127.5" class="grid"/><rect height="1" width="1" x="119.5" y="135.5" class="grid"/><rect height="1" width="1" x="119.5" y="143.5" class="grid"/><rect height="1" width="1" x="119.5" y="151.5" class="grid"/><rect height="1" width="1" x="119.5" y="159.5" class="grid"/><rect height="1" width="1" x="119.5" y="167.5" class="grid"/><rect height="1" width="1" x="119.5" y="175.5" class="grid"/><rect height="1" width="1" x="119.5" y="183.5" class="grid"/><rect height="1" width="1" x="119.5" y="191.5" class="grid"/><rect height="1" width="1" x="119.5" y="199.5" class="grid"/><rect height="1" width="1" x="127.5" y="-0.5" class="grid"/><rect height="1" width="1" x="127.5" y="7.5" class="grid"/><rect height="1" width="1" x="127.5" y="15.5" class="grid"/><rect height="1" width="1" x="127.5" y="23.5" class="grid"/><rect height="1" width="1" x="127.5" y="31.5" class="grid"/><rect height="1" width="1" x="127.5" y="39.5" class="grid"/><rect height="1" width="1" x="127.5" y="47.5" class="grid"/><rect height="1" width="1" x="127.5" y="55.5" class="grid"/><rect height="1" width="1" x="127.5" y="63.5" class="grid"/><rect height="1" width="1" x="127.5" y="71.5" class="grid"/><rect height="1" width="1" x="127.5" y="79.5" class="grid"/><rect height="1" width="1" x="127.5" y="87.5" class="grid"/><rect height="1" width="1" x="127.5" y="95.5" class="grid"/><rect height="1" width="1" x="127.5" y="103.5" class="grid"/><rect height="1" width="1" x="127.5" y="111.5" class="grid"/><rect height="1" width="1" x="127.5" y="119.5" class="grid"/><rect height="1" width="1" x="127.5" y="127.5" class="grid"/><rect height="1" width="1" x="127.5" y="135.5" class="grid"/><rect height="1" width="1" x="127.5" y="143.5" class="grid"/><rect height="1" width="1" x="127.5" y="151.5" class="grid"/><rect height="1" width="1" x="127.5" y="159.5" class="grid"/><rect height="1" width="1" x="127.5" y="167.5" class="grid"/><rect height="1" width="1" x="127.5" y="175.5" class="grid"/><rect height="1" width="1" x="127.5" y="183.5" class="grid"/><rect height="1" width="1" x="127.5" y="191.5" class="grid"/><rect height="1" width="1" x="127.5" y="199.5" class="grid"/><rect height="1" width="1" x="135.5" y="-0.5" class="grid"/><rect height="1" width="1" x="135.5" y="7.5" class="grid"/><rect height="1" width="1" x="135.5" y="15.5" class="grid"/><rect height="1" width="1" x="135.5" y="23.5" class="grid"/><rect height="1" width="1" x="135.5" y="31.5" class="grid"/><rect height="1" width="1" x="135.5" y="39.5" class="grid"/><rect height="1" width="1" x="135.5" y="47.5" class="grid"/><rect height="1" width="1" x="135.5" y="55.5" class="grid"/><rect height="1" width="1" x="135.5" y="63.5" class="grid"/><rect height="1" width="1" x="135.5" y="71.5" class="grid"/><rect height="1" width="1" x="135.5" y="79.5" class="grid"/><rect height="1" width="1" x="135.5" y="87.5" class="grid"/><rect height="1" width="1" x="135.5" y="95.5" class="grid"/><rect height="1" width="1" x="135.5" y="103.5" class="grid"/><rect height="1" width="1" x="135.5" y="111.5" class="grid"/><rect height="1" width="1" x="135.5" y="119.5" class="grid"/><rect height="1" width="1" x="135.5" y="127.5" class="grid"/><rect height="1" width="1" x="135.5" y="135.5" class="grid"/><rect height="1" width="1" x="135.5" y="143.5" class="grid"/><rect height="1" width="1" x="135.5" y="151.5" class="grid"/><rect height="1" width="1" x="135.5" y="159.5" class="grid"/><rect height="1" width="1" x="135.5" y="167.5" class="grid"/><rect height="1" width="1" x="135.5" y="175.5" class="grid"/><rect height="1" width="1" x="135.5" y="183.5" class="grid"/><rect height="1" width="1" x="135.5" y="191.5" class="grid"/><rect height="1" width="1" x="135.5" y="199.5" class="grid"/><rect height="1" width="1" x="143.5" y="-0.5" class="grid"/><rect height="1" width="1" x="143.5" y="7.5" class="grid"/><rect height="1" width="1" x="143.5" y="15.5" class="grid"/><rect height="1" width="1" x="143.5" y="23.5" class="grid"/><rect height="1" width="1" x="143.5" y="31.5" class="grid"/><rect height="1" width="1" x="143.5" y="39.5" class="grid"/><rect height="1" width="1" x="143.5" y="47.5" class="grid"/><rect height="1" width="1" x="143.5" y="55.5" class="grid"/><rect height="1" width="1" x="143.5" y="63.5" class="grid"/><rect height="1" width="1" x="143.5" y="71.5" class="grid"/><rect height="1" width="1" x="143.5" y="79.5" class="grid"/><rect height="1" width="1" x="143.5" y="87.5" class="grid"/><rect height="1" width="1" x="143.5" y="95.5" class="grid"/><rect height="1" width="1" x="143.5" y="103.5" class="grid"/><rect height="1" width="1" x="143.5" y="111.5" class="grid"/><rect height="1" width="1" x="143.5" y="119.5" class="grid"/><rect height="1" width="1" x="143.5" y="127.5" class="grid"/><rect height="1" width="1" x="143.5" y="135.5" class="grid"/><rect height="1" width="1" x="143.5" y="143.5" class="grid"/><rect height="1" width="1" x="143.5" y="151.5" class="grid"/><rect height="1" width="1" x="143.5" y="159.5" class="grid"/><rect height="1" width="1" x="143.5" y="167.5" class="grid"/><rect height="1" width="1" x="143.5" y="175.5" class="grid"/><rect height="1" width="1" x="143.5" y="183.5" class="grid"/><rect height="1" width="1" x="143.5" y="191.5" class="grid"/><rect height="1" width="1" x="143.5" y="199.5" class="grid"/><rect height="1" width="1" x="151.5" y="-0.5" class="grid"/><rect height="1" width="1" x="151.5" y="7.5" class="grid"/><rect height="1" width="1" x="151.5" y="15.5" class="grid"/><rect height="1" width="1" x="151.5" y="23.5" class="grid"/><rect height="1" width="1" x="151.5" y="31.5" class="grid"/><rect height="1" width="1" x="151.5" y="39.5" class="grid"/><rect height="1" width="1" x="151.5" y="47.5" class="grid"/><rect height="1" width="1" x="151.5" y="55.5" class="grid"/><rect height="1" width="1" x="151.5" y="63.5" class="grid"/><rect height="1" width="1" x="151.5" y="71.5" class="grid"/><rect height="1" width="1" x="151.5" y="79.5" class="grid"/><rect height="1" width="1" x="151.5" y="87.5" class="grid"/><rect height="1" width="1" x="151.5" y="95.5" class="grid"/><rect height="1" width="1" x="151.5" y="103.5" class="grid"/><rect height="1" width="1" x="151.5" y="111.5" class="grid"/><rect height="1" width="1" x="151.5" y="119.5" class="grid"/><rect height="1" width="1" x="151.5" y="127.5" class="grid"/><rect height="1" width="1" x="151.5" y="135.5" class="grid"/><rect height="1" width="1" x="151.5" y="143.5" class="grid"/><rect height="1" width="1" x="151.5" y="151.5" class="grid"/><rect height="1" width="1" x="151.5" y="159.5" class="grid"/><rect height="1" width="1" x="151.5" y="167.5" class="grid"/><rect height="1" width="1" x="151.5" y="175.5" class="grid"/><rect height="1" width="1" x="151.5" y="183.5" class="grid"/><rect height="1" width="1" x="151.5" y="191.5" class="grid"/><rect height="1" width="1" x="151.5" y="199.5" class="grid"/><rect height="1" width="1" x="159.5" y="-0.5" class="grid"/><rect height="1" width="1" x="159.5" y="7.5" class="grid"/><rect height="1" width="1" x="159.5" y="15.5" class="grid"/><rect height="1" width="1" x="159.5" y="23.5" class="grid"/><rect height="1" width="1" x="159.5" y="31.5" class="grid"/><rect height="1" width="1" x="159.5" y="39.5" class="grid"/><rect height="1" width="1" x="159.5" y="47.5" class="grid"/><rect height="1" width="1" x="159.5" y="55.5" class="grid"/><rect height="1" width="1" x="159.5" y="63.5" class="grid"/><rect height="1" width="1" x="159.5" y="71.5" class="grid"/><rect height="1" width="1" x="159.5" y="79.5" class="grid"/><rect height="1" width="1" x="159.5" y="87.5" class="grid"/><rect height="1" width="1" x="159.5" y="95.5" class="grid"/><rect height="1" width="1" x="159.5" y="103.5" class="grid"/><rect height="1" width="1" x="159.5" y="111.5" class="grid"/><rect height="1" width="1" x="159.5" y="119.5" class="grid"/><rect height="1" width="1" x="159.5" y="127.5" class="grid"/><rect height="1" width="1" x="159.5" y="135.5" class="grid"/><rect height="1" width="1" x="159.5" y="143.5" class="grid"/><rect height="1" width="1" x="159.5" y="151.5" class="grid"/><rect height="1" width="1" x="159.5" y="159.5" class="grid"/><rect height="1" width="1" x="159.5" y="167.5" class="grid"/><rect height="1" width="1" x="159.5" y="175.5" class="grid"/><rect height="1" width="1" x="159.5" y="183.5" class="grid"/><rect height="1" width="1" x="159.5" y="191.5" class="grid"/><rect height="1" width="1" x="159.5" y="199.5" class="grid"/><rect height="1" width="1" x="167.5" y="-0.5" class="grid"/><rect height="1" width="1" x="167.5" y="7.5" class="grid"/><rect height="1" width="1" x="167.5" y="15.5" class="grid"/><rect height="1" width="1" x="167.5" y="23.5" class="grid"/><rect height="1" width="1" x="167.5" y="31.5" class="grid"/><rect height="1" width="1" x="167.5" y="39.5" class="grid"/><rect height="1" width="1" x="167.5" y="47.5" class="grid"/><rect height="1" width="1" x="167.5" y="55.5" class="grid"/><rect height="1" width="1" x="167.5" y="63.5" class="grid"/><rect height="1" width="1" x="167.5" y="71.5" class="grid"/><rect height="1" width="1" x="167.5" y="79.5" class="grid"/><rect height="1" width="1" x="167.5" y="87.5" class="grid"/><rect height="1" width="1" x="167.5" y="95.5" class="grid"/><rect height="1" width="1" x="167.5" y="103.5" class="grid"/><rect height="1" width="1" x="167.5" y="111.5" class="grid"/><rect height="1" width="1" x="167.5" y="119.5" class="grid"/><rect height="1" width="1" x="167.5" y="127.5" class="grid"/><rect height="1" width="1" x="167.5" y="135.5" class="grid"/><rect height="1" width="1" x="167.5" y="143.5" class="grid"/><rect height="1" width="1" x="167.5" y="151.5" class="grid"/><rect height="1" width="1" x="167.5" y="159.5" class="grid"/><rect height="1" width="1" x="167.5" y="167.5" class="grid"/><rect height="1" width="1" x="167.5" y="175.5" class="grid"/><rect height="1" width="1" x="167.5" y="183.5" class="grid"/><rect height="1" width="1" x="167.5" y="191.5" class="grid"/><rect height="1" width="1" x="167.5" y="199.5" class="grid"/><rect height="1" width="1" x="175.5" y="-0.5" class="grid"/><rect height="1" width="1" x="175.5" y="7.5" class="grid"/><rect height="1" width="1" x="175.5" y="15.5" class="grid"/><rect height="1" width="1" x="175.5" y="23.5" class="grid"/><rect height="1" width="1" x="175.5" y="31.5" class="grid"/><rect height="1" width="1" x="175.5" y="39.5" class="grid"/><rect height="1" width="1" x="175.5" y="47.5" class="grid"/><rect height="1" width="1" x="175.5" y="55.5" class="grid"/><rect height="1" width="1" x="175.5" y="63.5" class="grid"/><rect height="1" width="1" x="175.5" y="71.5" class="grid"/><rect height="1" width="1" x="175.5" y="79.5" class="grid"/><rect height="1" width="1" x="175.5" y="87.5" class="grid"/><rect height="1" width="1" x="175.5" y="95.5" class="grid"/><rect height="1" width="1" x="175.5" y="103.5" class="grid"/><rect height="1" width="1" x="175.5" y="111.5" class="grid"/><rect height="1" width="1" x="175.5" y="119.5" class="grid"/><rect height="1" width="1" x="175.5" y="127.5" class="grid"/><rect height="1" width="1" x="175.5" y="135.5" class="grid"/><rect height="1" width="1" x="175.5" y="143.5" class="grid"/><rect height="1" width="1" x="175.5" y="151.5" class="grid"/><rect height="1" width="1" x="175.5" y="159.5" class="grid"/><rect height="1" width="1" x="175.5" y="167.5" class="grid"/><rect height="1" width="1" x="175.5" y="175.5" class="grid"/><rect height="1" width="1" x="175.5" y="183.5" class="grid"/><rect height="1" width="1" x="175.5" y="191.5" class="grid"/><rect height="1" width="1" x="175.5" y="199.5" class="grid"/><rect height="1" width="1" x="183.5" y="-0.5" class="grid"/><rect height="1" width="1" x="183.5" y="7.5" class="grid"/><rect height="1" width="1" x="183.5" y="15.5" class="grid"/><rect height="1" width="1" x="183.5" y="23.5" class="grid"/><rect height="1" width="1" x="183.5" y="31.5" class="grid"/><rect height="1" width="1" x="183.5" y="39.5" class="grid"/><rect height="1" width="1" x="183.5" y="47.5" class="grid"/><rect height="1" width="1" x="183.5" y="55.5" class="grid"/><rect height="1" width="1" x="183.5" y="63.5" class="grid"/><rect height="1" width="1" x="183.5" y="71.5" class="grid"/><rect height="1" width="1" x="183.5" y="79.5" class="grid"/><rect height="1" width="1" x="183.5" y="87.5" class="grid"/><rect height="1" width="1" x="183.5" y="95.5" class="grid"/><rect height="1" width="1" x="183.5" y="103.5" class="grid"/><rect height="1" width="1" x="183.5" y="111.5" class="grid"/><rect height="1" width="1" x="183.5" y="119.5" class="grid"/><rect height="1" width="1" x="183.5" y="127.5" class="grid"/><rect height="1" width="1" x="183.5" y="135.5" class="grid"/><rect height="1" width="1" x="183.5" y="143.5" class="grid"/><rect height="1" width="1" x="183.5" y="151.5" class="grid"/><rect height="1" width="1" x="183.5" y="159.5" class="grid"/><rect height="1" width="1" x="183.5" y="167.5" class="grid"/><rect height="1" width="1" x="183.5" y="175.5" class="grid"/><rect height="1" width="1" x="183.5" y="183.5" class="grid"/><rect height="1" width="1" x="183.5" y="191.5" class="grid"/><rect height="1" width="1" x="183.5" y="199.5" class="grid"/><rect height="1" width="1" x="191.5" y="-0.5" class="grid"/><rect height="1" width="1" x="191.5" y="7.5" class="grid"/><rect height="1" width="1" x="191.5" y="15.5" class="grid"/><rect height="1" width="1" x="191.5" y="23.5" class="grid"/><rect height="1" width="1" x="191.5" y="31.5" class="grid"/><rect height="1" width="1" x="191.5" y="39.5" class="grid"/><rect height="1" width="1" x="191.5" y="47.5" class="grid"/><rect height="1" width="1" x="191.5" y="55.5" class="grid"/><rect height="1" width="1" x="191.5" y="63.5" class="grid"/><rect height="1" width="1" x="191.5" y="71.5" class="grid"/><rect height="1" width="1" x="191.5" y="79.5" class="grid"/><rect height="1" width="1" x="191.5" y="87.5" class="grid"/><rect height="1" width="1" x="191.5" y="95.5" class="grid"/><rect height="1" width="1" x="191.5" y="103.5" class="grid"/><rect height="1" width="1" x="191.5" y="111.5" class="grid"/><rect height="1" width="1" x="191.5" y="119.5" class="grid"/><rect height="1" width="1" x="191.5" y="127.5" class="grid"/><rect height="1" width="1" x="191.5" y="135.5" class="grid"/><rect height="1" width="1" x="191.5" y="143.5" class="grid"/><rect height="1" width="1" x="191.5" y="151.5" class="grid"/><rect height="1" width="1" x="191.5" y="159.5" class="grid"/><rect height="1" width="1" x="191.5" y="167.5" class="grid"/><rect height="1" width="1" x="191.5" y="175.5" class="grid"/><rect height="1" width="1" x="191.5" y="183.5" class="grid"/><rect height="1" width="1" x="191.5" y="191.5" class="grid"/><rect height="1" width="1" x="191.5" y="199.5" class="grid"/></g><g><g><g><g transform="translate(16,0)"><path d="M  128,32 128,32" class="wire"/></g><g><path d="m  128,32 16,0" class="wire"/></g><g transform="translate(160,32)"><title>i.req</title><text><tspan x="-14" y="4" class="wirename">i.req</tspan></text></g></g><g><g><g transform="translate(16,0)"><path d="M  96,16 96,48" class="wire"/></g><g><path d="m  96,16 16,0" class="wire"/></g><g><path d="m  96,32 16,0" class="wire"/></g><g><path d="m  96,48 16,0" class="wire"/></g><g transform="translate(128,32)"><title>&amp;</title><path class="gate" d="m -16,-10 5,0 c 6,0 11,4 11,10 0,6 -5,10 -11,10 l -5,0 z"/></g></g><g><g transform="translate(96,16)"><title>t0.req</title><path d="M 2,0 a 2,2 0 1 1 -4,0 2,2 0 1 1 4,0 z"/><text><tspan x="-4" y="4" class="pinname">t0.req</tspan></text></g></g><g><g transform="translate(96,32)"><title>t1.req</title><path d="M 2,0 a 2,2 0 1 1 -4,0 2,2 0 1 1 4,0 z"/><text><tspan x="-4" y="4" class="pinname">t1.req</tspan></text></g></g><g><g transform="translate(96,48)"><title>...</title><path d="M 2,0 a 2,2 0 1 1 -4,0 2,2 0 1 1 4,0 z"/><text><tspan x="-4" y="4" class="pinname">...</tspan></text></g></g></g></g><g><g><g transform="translate(16,0)"><path d="M  128,88 128,88" class="wire"/></g><g><path d="m  128,88 16,0" class="wire"/></g><g transform="translate(160,88)"><title>t0.ack</title><text><tspan x="-14" y="4" class="wirename">t0.ack</tspan></text></g></g><g><g><g transform="translate(16,0)"><path d="M  96,64 96,96" class="wire"/></g><g><path d="m  96,64 16,0" class="wire"/></g><g><path d="m  96,96 16,0" class="wire"/></g><g transform="translate(128,88)"><title>&amp;</title><path class="gate" d="m -16,-10 5,0 c 6,0 11,4 11,10 0,6 -5,10 -11,10 l -5,0 z"/></g></g><g><g transform="translate(96,64)"><title>i.ack</title><path d="M 2,0 a 2,2 0 1 1 -4,0 2,2 0 1 1 4,0 z"/><text><tspan x="-4" y="4" class="pinname">i.ack</tspan></text></g></g><g><g><g transform="translate(16,0)"><path d="M  64,80 64,112" class="wire"/></g><g><path d="m  64,80 16,0" class="wire"/></g><g><path d="m  64,96 16,0" class="wire"/></g><g><path d="m  64,112 16,0" class="wire"/></g><g transform="translate(96,96)"><title>&amp;</title><path class="gate" d="m -16,-10 5,0 c 6,0 11,4 11,10 0,6 -5,10 -11,10 l -5,0 z"/></g></g><g><g transform="translate(64,80)"><title>1</title><path d="M 2,0 a 2,2 0 1 1 -4,0 2,2 0 1 1 4,0 z"/><text><tspan x="-4" y="4" class="pinname">1</tspan></text></g></g><g><g transform="translate(64,96)"><title>t1.req</title><path d="M 2,0 a 2,2 0 1 1 -4,0 2,2 0 1 1 4,0 z"/><text><tspan x="-4" y="4" class="pinname">t1.req</tspan></text></g></g><g><g transform="translate(64,112)"><title>...</title><path d="M 2,0 a 2,2 0 1 1 -4,0 2,2 0 1 1 4,0 z"/><text><tspan x="-4" y="4" class="pinname">...</tspan></text></g></g></g></g></g><g><g><g transform="translate(16,0)"><path d="M  128,152 128,152" class="wire"/></g><g><path d="m  128,152 16,0" class="wire"/></g><g transform="translate(160,152)"><title>t1.ack</title><text><tspan x="-14" y="4" class="wirename">t1.ack</tspan></text></g></g><g><g><g transform="translate(16,0)"><path d="M  96,128 96,160" class="wire"/></g><g><path d="m  96,128 16,0" class="wire"/></g><g><path d="m  96,160 16,0" class="wire"/></g><g transform="translate(128,152)"><title>&amp;</title><path class="gate" d="m -16,-10 5,0 c 6,0 11,4 11,10 0,6 -5,10 -11,10 l -5,0 z"/></g></g><g><g transform="translate(96,128)"><title>i.ack</title><path d="M 2,0 a 2,2 0 1 1 -4,0 2,2 0 1 1 4,0 z"/><text><tspan x="-4" y="4" class="pinname">i.ack</tspan></text></g></g><g><g><g transform="translate(16,0)"><path d="M  64,144 64,176" class="wire"/></g><g><path d="m  64,144 16,0" class="wire"/></g><g><path d="m  64,160 16,0" class="wire"/></g><g><path d="m  64,176 16,0" class="wire"/></g><g transform="translate(96,160)"><title>&amp;</title><path class="gate" d="m -16,-10 5,0 c 6,0 11,4 11,10 0,6 -5,10 -11,10 l -5,0 z"/></g></g><g><g transform="translate(64,144)"><title>t0.req</title><path d="M 2,0 a 2,2 0 1 1 -4,0 2,2 0 1 1 4,0 z"/><text><tspan x="-4" y="4" class="pinname">t0.req</tspan></text></g></g><g><g transform="translate(64,160)"><title>1</title><path d="M 2,0 a 2,2 0 1 1 -4,0 2,2 0 1 1 4,0 z"/><text><tspan x="-4" y="4" class="pinname">1</tspan></text></g></g><g><g transform="translate(64,176)"><title>...</title><path d="M 2,0 a 2,2 0 1 1 -4,0 2,2 0 1 1 4,0 z"/><text><tspan x="-4" y="4" class="pinname">...</tspan></text></g></g></g></g></g></g></g></svg>